<mxfile host="app.diagrams.net" modified="2021-02-20T10:10:26.206Z" agent="5.0 (Windows NT 6.1; Win64; x64) AppleWebKit/537.36 (KHTML, like Gecko) Chrome/88.0.4324.41 YaBrowser/21.2.0.1097 Yowser/2.5 Safari/537.36" etag="QuicpIPrGuX9cBX0Upqr" version="14.2.7" type="github">
  <diagram id="RwQuHI2duhZgIkpO_1kY" name="Page-1">
    <mxGraphModel dx="2031" dy="1144" grid="1" gridSize="10" guides="1" tooltips="1" connect="1" arrows="1" fold="1" page="1" pageScale="1" pageWidth="827" pageHeight="1169" math="0" shadow="0">
      <root>
        <mxCell id="0" />
        <mxCell id="1" parent="0" />
        <mxCell id="gbB5KMWNoqeULvBB3U-G-58" value="" style="rounded=0;whiteSpace=wrap;html=1;fillColor=#fff2cc;strokeColor=#d6b656;" parent="1" vertex="1">
          <mxGeometry x="430" y="30" width="180" height="950" as="geometry" />
        </mxCell>
        <mxCell id="gbB5KMWNoqeULvBB3U-G-61" value="Админ" style="rounded=0;whiteSpace=wrap;html=1;" parent="1" vertex="1">
          <mxGeometry x="440" y="40" width="160" height="40" as="geometry" />
        </mxCell>
        <mxCell id="gbB5KMWNoqeULvBB3U-G-64" value="" style="rounded=0;whiteSpace=wrap;html=1;fillColor=#fff2cc;strokeColor=#d6b656;" parent="1" vertex="1">
          <mxGeometry x="230" y="30" width="180" height="950" as="geometry" />
        </mxCell>
        <mxCell id="gbB5KMWNoqeULvBB3U-G-67" value="Зарегестрированный пользователь" style="rounded=0;whiteSpace=wrap;html=1;" parent="1" vertex="1">
          <mxGeometry x="240" y="40" width="160" height="40" as="geometry" />
        </mxCell>
        <mxCell id="gbB5KMWNoqeULvBB3U-G-14" value="" style="rounded=0;whiteSpace=wrap;html=1;fillColor=#dae8fc;strokeColor=#6c8ebf;" parent="1" vertex="1">
          <mxGeometry x="870" y="30" width="180" height="610" as="geometry" />
        </mxCell>
        <mxCell id="gbB5KMWNoqeULvBB3U-G-1" value="Объявление&lt;br&gt;Ad" style="rounded=0;whiteSpace=wrap;html=1;" parent="1" vertex="1">
          <mxGeometry x="880" y="40" width="160" height="40" as="geometry" />
        </mxCell>
        <mxCell id="gbB5KMWNoqeULvBB3U-G-2" value="int Id" style="rounded=1;whiteSpace=wrap;html=1;" parent="1" vertex="1">
          <mxGeometry x="880" y="90" width="160" height="40" as="geometry" />
        </mxCell>
        <mxCell id="gbB5KMWNoqeULvBB3U-G-3" value="string Title&lt;br&gt;заголовок" style="rounded=1;whiteSpace=wrap;html=1;" parent="1" vertex="1">
          <mxGeometry x="880" y="140" width="160" height="40" as="geometry" />
        </mxCell>
        <mxCell id="gbB5KMWNoqeULvBB3U-G-4" value="User UserOwner&lt;br&gt;владелец объявления" style="rounded=1;whiteSpace=wrap;html=1;fillColor=#f8cecc;strokeColor=#b85450;" parent="1" vertex="1">
          <mxGeometry x="880" y="190" width="160" height="40" as="geometry" />
        </mxCell>
        <mxCell id="gbB5KMWNoqeULvBB3U-G-5" value="DateTime CreatedAt" style="rounded=1;whiteSpace=wrap;html=1;" parent="1" vertex="1">
          <mxGeometry x="880" y="240" width="160" height="40" as="geometry" />
        </mxCell>
        <mxCell id="gbB5KMWNoqeULvBB3U-G-6" value="DateTime UpdatedAt" style="rounded=1;whiteSpace=wrap;html=1;" parent="1" vertex="1">
          <mxGeometry x="880" y="290" width="160" height="40" as="geometry" />
        </mxCell>
        <mxCell id="gbB5KMWNoqeULvBB3U-G-7" value="String Description&lt;br&gt;описание объявления" style="rounded=1;whiteSpace=wrap;html=1;" parent="1" vertex="1">
          <mxGeometry x="880" y="340" width="160" height="40" as="geometry" />
        </mxCell>
        <mxCell id="gbB5KMWNoqeULvBB3U-G-8" value="id CategoryId&lt;br&gt;описание объявления" style="rounded=1;whiteSpace=wrap;html=1;" parent="1" vertex="1">
          <mxGeometry x="880" y="390" width="160" height="40" as="geometry" />
        </mxCell>
        <mxCell id="gbB5KMWNoqeULvBB3U-G-9" value="decimal Price" style="rounded=1;whiteSpace=wrap;html=1;" parent="1" vertex="1">
          <mxGeometry x="880" y="440" width="160" height="40" as="geometry" />
        </mxCell>
        <mxCell id="gbB5KMWNoqeULvBB3U-G-10" value="enum Statuses status" style="rounded=1;whiteSpace=wrap;html=1;" parent="1" vertex="1">
          <mxGeometry x="880" y="490" width="160" height="40" as="geometry" />
        </mxCell>
        <mxCell id="gbB5KMWNoqeULvBB3U-G-11" value="int Views&lt;br&gt;количество просмотров" style="rounded=1;whiteSpace=wrap;html=1;" parent="1" vertex="1">
          <mxGeometry x="880" y="540" width="160" height="40" as="geometry" />
        </mxCell>
        <mxCell id="gbB5KMWNoqeULvBB3U-G-13" value="list&amp;lt;String&amp;gt;&amp;nbsp; PhotoUrl" style="rounded=1;whiteSpace=wrap;html=1;" parent="1" vertex="1">
          <mxGeometry x="880" y="590" width="160" height="40" as="geometry" />
        </mxCell>
        <mxCell id="gbB5KMWNoqeULvBB3U-G-19" value="Created" style="rounded=1;whiteSpace=wrap;html=1;" parent="1" vertex="1">
          <mxGeometry x="1060" y="480" width="100" height="20" as="geometry" />
        </mxCell>
        <mxCell id="gbB5KMWNoqeULvBB3U-G-20" value="Closed" style="rounded=1;whiteSpace=wrap;html=1;" parent="1" vertex="1">
          <mxGeometry x="1060" y="520" width="100" height="20" as="geometry" />
        </mxCell>
        <mxCell id="gbB5KMWNoqeULvBB3U-G-22" value="Complited" style="rounded=1;whiteSpace=wrap;html=1;" parent="1" vertex="1">
          <mxGeometry x="1060" y="500" width="100" height="20" as="geometry" />
        </mxCell>
        <mxCell id="gbB5KMWNoqeULvBB3U-G-28" value="" style="rounded=0;whiteSpace=wrap;html=1;fillColor=#dae8fc;strokeColor=#6c8ebf;" parent="1" vertex="1">
          <mxGeometry x="1070" y="30" width="180" height="360" as="geometry" />
        </mxCell>
        <mxCell id="gbB5KMWNoqeULvBB3U-G-29" value="Сообщения&lt;br&gt;Message" style="rounded=0;whiteSpace=wrap;html=1;" parent="1" vertex="1">
          <mxGeometry x="1080" y="40" width="160" height="40" as="geometry" />
        </mxCell>
        <mxCell id="gbB5KMWNoqeULvBB3U-G-30" value="int Id" style="rounded=1;whiteSpace=wrap;html=1;" parent="1" vertex="1">
          <mxGeometry x="1080" y="90" width="160" height="40" as="geometry" />
        </mxCell>
        <mxCell id="gbB5KMWNoqeULvBB3U-G-31" value="User FromUser" style="rounded=1;whiteSpace=wrap;html=1;" parent="1" vertex="1">
          <mxGeometry x="1080" y="140" width="160" height="40" as="geometry" />
        </mxCell>
        <mxCell id="gbB5KMWNoqeULvBB3U-G-32" value="int AdId" style="rounded=1;whiteSpace=wrap;html=1;fillColor=#f8cecc;strokeColor=#b85450;" parent="1" vertex="1">
          <mxGeometry x="1080" y="190" width="160" height="40" as="geometry" />
        </mxCell>
        <mxCell id="gbB5KMWNoqeULvBB3U-G-33" value="DateTime Created" style="rounded=1;whiteSpace=wrap;html=1;" parent="1" vertex="1">
          <mxGeometry x="1080" y="240" width="160" height="40" as="geometry" />
        </mxCell>
        <mxCell id="gbB5KMWNoqeULvBB3U-G-35" value="String Text" style="rounded=1;whiteSpace=wrap;html=1;" parent="1" vertex="1">
          <mxGeometry x="1080" y="290" width="160" height="40" as="geometry" />
        </mxCell>
        <mxCell id="gbB5KMWNoqeULvBB3U-G-41" value="Bool IsReaded" style="rounded=1;whiteSpace=wrap;html=1;" parent="1" vertex="1">
          <mxGeometry x="1080" y="340" width="160" height="40" as="geometry" />
        </mxCell>
        <mxCell id="gbB5KMWNoqeULvBB3U-G-50" value="" style="rounded=0;whiteSpace=wrap;html=1;fillColor=#fff2cc;strokeColor=#d6b656;" parent="1" vertex="1">
          <mxGeometry x="30" y="30" width="180" height="560" as="geometry" />
        </mxCell>
        <mxCell id="gbB5KMWNoqeULvBB3U-G-51" value="Login&lt;br&gt;Вход в систему" style="rounded=1;whiteSpace=wrap;html=1;" parent="1" vertex="1">
          <mxGeometry x="40" y="90" width="160" height="40" as="geometry" />
        </mxCell>
        <mxCell id="gbB5KMWNoqeULvBB3U-G-52" value="Register&lt;br&gt;Вход в систему" style="rounded=1;whiteSpace=wrap;html=1;" parent="1" vertex="1">
          <mxGeometry x="40" y="140" width="160" height="40" as="geometry" />
        </mxCell>
        <mxCell id="gbB5KMWNoqeULvBB3U-G-54" value="Незарегестрированный пользователь" style="rounded=0;whiteSpace=wrap;html=1;" parent="1" vertex="1">
          <mxGeometry x="40" y="40" width="160" height="40" as="geometry" />
        </mxCell>
        <mxCell id="gbB5KMWNoqeULvBB3U-G-55" value="GetPaged&lt;br&gt;Просмотр страницы объявлений" style="rounded=1;whiteSpace=wrap;html=1;" parent="1" vertex="1">
          <mxGeometry x="40" y="190" width="560" height="40" as="geometry" />
        </mxCell>
        <mxCell id="gbB5KMWNoqeULvBB3U-G-56" value="GetById&lt;br&gt;Просмотр объявления по Id" style="rounded=1;whiteSpace=wrap;html=1;" parent="1" vertex="1">
          <mxGeometry x="40" y="240" width="560" height="40" as="geometry" />
        </mxCell>
        <mxCell id="gbB5KMWNoqeULvBB3U-G-70" value="Create&lt;br&gt;Добавление объявления" style="rounded=1;whiteSpace=wrap;html=1;" parent="1" vertex="1">
          <mxGeometry x="240" y="290" width="160" height="40" as="geometry" />
        </mxCell>
        <mxCell id="gbB5KMWNoqeULvBB3U-G-71" value="CompliteAd&lt;br&gt;Завершить объявление" style="rounded=1;whiteSpace=wrap;html=1;" parent="1" vertex="1">
          <mxGeometry x="240" y="340" width="160" height="40" as="geometry" />
        </mxCell>
        <mxCell id="gbB5KMWNoqeULvBB3U-G-72" value="Logout&lt;br&gt;Выход из системы" style="rounded=1;whiteSpace=wrap;html=1;fillColor=#f8cecc;strokeColor=#b85450;" parent="1" vertex="1">
          <mxGeometry x="240" y="90" width="160" height="40" as="geometry" />
        </mxCell>
        <mxCell id="mvUMHzGxJndMRcejRFVF-1" value="CloseAd&lt;br&gt;Закрыть объявление" style="rounded=1;whiteSpace=wrap;html=1;" parent="1" vertex="1">
          <mxGeometry x="240" y="390" width="360" height="40" as="geometry" />
        </mxCell>
        <mxCell id="mvUMHzGxJndMRcejRFVF-3" value="PutRating&lt;br&gt;Поставить рейтинг объявлению" style="rounded=1;whiteSpace=wrap;html=1;fillColor=#f8cecc;strokeColor=#b85450;" parent="1" vertex="1">
          <mxGeometry x="240" y="440" width="160" height="40" as="geometry" />
        </mxCell>
        <mxCell id="mvUMHzGxJndMRcejRFVF-4" value="GetMessagesPaged&lt;br&gt;Показать сообщения" style="rounded=1;whiteSpace=wrap;html=1;" parent="1" vertex="1">
          <mxGeometry x="240" y="540" width="160" height="40" as="geometry" />
        </mxCell>
        <mxCell id="mvUMHzGxJndMRcejRFVF-5" value="CreateMessage&lt;br&gt;Написать сообщение" style="rounded=1;whiteSpace=wrap;html=1;" parent="1" vertex="1">
          <mxGeometry x="240" y="490" width="160" height="40" as="geometry" />
        </mxCell>
        <mxCell id="mvUMHzGxJndMRcejRFVF-6" value="DeleteMessage&lt;br&gt;Удалить сообщения" style="rounded=1;whiteSpace=wrap;html=1;" parent="1" vertex="1">
          <mxGeometry x="240" y="590" width="160" height="40" as="geometry" />
        </mxCell>
        <mxCell id="FcWUdTGFdB_F2x-7b5ZW-1" value="Logout&lt;br&gt;Выход из системы" style="rounded=1;whiteSpace=wrap;html=1;fillColor=#f8cecc;strokeColor=#b85450;" parent="1" vertex="1">
          <mxGeometry x="440" y="90" width="160" height="40" as="geometry" />
        </mxCell>
        <mxCell id="FcWUdTGFdB_F2x-7b5ZW-2" value="EditUser&lt;br&gt;Изменение параметров пользователя" style="rounded=1;whiteSpace=wrap;html=1;" parent="1" vertex="1">
          <mxGeometry x="240" y="640" width="360" height="40" as="geometry" />
        </mxCell>
        <mxCell id="FcWUdTGFdB_F2x-7b5ZW-4" value="ChangeCategory&lt;br&gt;Изменение категории" style="rounded=1;whiteSpace=wrap;html=1;" parent="1" vertex="1">
          <mxGeometry x="440" y="790" width="160" height="40" as="geometry" />
        </mxCell>
        <mxCell id="FcWUdTGFdB_F2x-7b5ZW-5" value="AddCategory&lt;br&gt;Добавление категории" style="rounded=1;whiteSpace=wrap;html=1;" parent="1" vertex="1">
          <mxGeometry x="440" y="740" width="160" height="40" as="geometry" />
        </mxCell>
        <mxCell id="FcWUdTGFdB_F2x-7b5ZW-6" value="DeleteCategory&lt;br&gt;Удаление категории" style="rounded=1;whiteSpace=wrap;html=1;" parent="1" vertex="1">
          <mxGeometry x="440" y="840" width="160" height="40" as="geometry" />
        </mxCell>
        <mxCell id="7B4RUf_Frpo3tljozMKp-1" value="GetUser&lt;br&gt;Посмотреть данные пользователя" style="rounded=1;whiteSpace=wrap;html=1;" vertex="1" parent="1">
          <mxGeometry x="240" y="690" width="360" height="40" as="geometry" />
        </mxCell>
        <mxCell id="7B4RUf_Frpo3tljozMKp-2" value="" style="rounded=0;whiteSpace=wrap;html=1;fillColor=#f8cecc;strokeColor=#b85450;" vertex="1" parent="1">
          <mxGeometry x="1270" y="30" width="180" height="210" as="geometry" />
        </mxCell>
        <mxCell id="7B4RUf_Frpo3tljozMKp-3" value="Категория&lt;br&gt;Category" style="rounded=0;whiteSpace=wrap;html=1;" vertex="1" parent="1">
          <mxGeometry x="1280" y="40" width="160" height="40" as="geometry" />
        </mxCell>
        <mxCell id="7B4RUf_Frpo3tljozMKp-4" value="int Id" style="rounded=1;whiteSpace=wrap;html=1;" vertex="1" parent="1">
          <mxGeometry x="1280" y="90" width="160" height="40" as="geometry" />
        </mxCell>
        <mxCell id="7B4RUf_Frpo3tljozMKp-5" value="String Title" style="rounded=1;whiteSpace=wrap;html=1;" vertex="1" parent="1">
          <mxGeometry x="1280" y="140" width="160" height="40" as="geometry" />
        </mxCell>
        <mxCell id="7B4RUf_Frpo3tljozMKp-6" value="String Description" style="rounded=1;whiteSpace=wrap;html=1;" vertex="1" parent="1">
          <mxGeometry x="1280" y="190" width="160" height="40" as="geometry" />
        </mxCell>
        <mxCell id="7B4RUf_Frpo3tljozMKp-7" value="" style="rounded=0;whiteSpace=wrap;html=1;fillColor=#dae8fc;strokeColor=#6c8ebf;" vertex="1" parent="1">
          <mxGeometry x="670" y="30" width="180" height="810" as="geometry" />
        </mxCell>
        <mxCell id="7B4RUf_Frpo3tljozMKp-8" value="Пользователь&lt;br&gt;User" style="rounded=0;whiteSpace=wrap;html=1;" vertex="1" parent="1">
          <mxGeometry x="680" y="40" width="160" height="40" as="geometry" />
        </mxCell>
        <mxCell id="7B4RUf_Frpo3tljozMKp-9" value="int Id" style="rounded=1;whiteSpace=wrap;html=1;" vertex="1" parent="1">
          <mxGeometry x="680" y="90" width="160" height="40" as="geometry" />
        </mxCell>
        <mxCell id="7B4RUf_Frpo3tljozMKp-10" value="String UserName" style="rounded=1;whiteSpace=wrap;html=1;" vertex="1" parent="1">
          <mxGeometry x="680" y="140" width="160" height="40" as="geometry" />
        </mxCell>
        <mxCell id="7B4RUf_Frpo3tljozMKp-11" value="String Password" style="rounded=1;whiteSpace=wrap;html=1;fillColor=#f8cecc;strokeColor=#b85450;" vertex="1" parent="1">
          <mxGeometry x="680" y="240" width="160" height="40" as="geometry" />
        </mxCell>
        <mxCell id="7B4RUf_Frpo3tljozMKp-12" value="String Mail" style="rounded=1;whiteSpace=wrap;html=1;" vertex="1" parent="1">
          <mxGeometry x="680" y="190" width="160" height="40" as="geometry" />
        </mxCell>
        <mxCell id="7B4RUf_Frpo3tljozMKp-13" value="DateTime RegisteredAt" style="rounded=1;whiteSpace=wrap;html=1;" vertex="1" parent="1">
          <mxGeometry x="680" y="490" width="160" height="40" as="geometry" />
        </mxCell>
        <mxCell id="7B4RUf_Frpo3tljozMKp-14" value="String Description&lt;br&gt;описание объявления" style="rounded=1;whiteSpace=wrap;html=1;" vertex="1" parent="1">
          <mxGeometry x="680" y="440" width="160" height="40" as="geometry" />
        </mxCell>
        <mxCell id="7B4RUf_Frpo3tljozMKp-15" value="id CategoryId&lt;br&gt;описание объявления" style="rounded=1;whiteSpace=wrap;html=1;" vertex="1" parent="1">
          <mxGeometry x="680" y="590" width="160" height="40" as="geometry" />
        </mxCell>
        <mxCell id="7B4RUf_Frpo3tljozMKp-16" value="decimal Price" style="rounded=1;whiteSpace=wrap;html=1;" vertex="1" parent="1">
          <mxGeometry x="680" y="640" width="160" height="40" as="geometry" />
        </mxCell>
        <mxCell id="7B4RUf_Frpo3tljozMKp-17" value="enum Statuses status" style="rounded=1;whiteSpace=wrap;html=1;" vertex="1" parent="1">
          <mxGeometry x="680" y="690" width="160" height="40" as="geometry" />
        </mxCell>
        <mxCell id="7B4RUf_Frpo3tljozMKp-18" value="int Views&lt;br&gt;количество просмотров" style="rounded=1;whiteSpace=wrap;html=1;" vertex="1" parent="1">
          <mxGeometry x="680" y="740" width="160" height="40" as="geometry" />
        </mxCell>
        <mxCell id="7B4RUf_Frpo3tljozMKp-19" value="list&amp;lt;String&amp;gt;&amp;nbsp; PhotoUrl" style="rounded=1;whiteSpace=wrap;html=1;" vertex="1" parent="1">
          <mxGeometry x="680" y="790" width="160" height="40" as="geometry" />
        </mxCell>
        <mxCell id="7B4RUf_Frpo3tljozMKp-20" value="String FirstName" style="rounded=1;whiteSpace=wrap;html=1;" vertex="1" parent="1">
          <mxGeometry x="680" y="290" width="160" height="40" as="geometry" />
        </mxCell>
        <mxCell id="7B4RUf_Frpo3tljozMKp-21" value="String MiddleName" style="rounded=1;whiteSpace=wrap;html=1;" vertex="1" parent="1">
          <mxGeometry x="680" y="340" width="160" height="40" as="geometry" />
        </mxCell>
        <mxCell id="7B4RUf_Frpo3tljozMKp-22" value="String LastName" style="rounded=1;whiteSpace=wrap;html=1;" vertex="1" parent="1">
          <mxGeometry x="680" y="390" width="160" height="40" as="geometry" />
        </mxCell>
        <mxCell id="7B4RUf_Frpo3tljozMKp-23" value="String Address" style="rounded=1;whiteSpace=wrap;html=1;" vertex="1" parent="1">
          <mxGeometry x="680" y="540" width="160" height="40" as="geometry" />
        </mxCell>
      </root>
    </mxGraphModel>
  </diagram>
</mxfile>
